<svg width="74" height="32" viewBox="0 0 74 32" fill="none" xmlns="http://www.w3.org/2000/svg">
<path d="M0.64 4.64L1.6 0H6.56V27.36H12.8V32H1.6V4.64H0.64ZM20.5415 0H24.8935C27.2295 0 28.7975 1.568 28.7975 3.904V28.096C28.7975 30.432 27.2295 32 24.8935 32H20.5415C18.2055 32 16.6375 30.432 16.6375 28.096V3.904C16.6375 1.568 18.2055 0 20.5415 0ZM21.5975 27.36H23.8375V4.64H21.5975V27.36ZM32.635 3.904C32.635 1.568 34.203 0 36.539 0H40.891C43.227 0 44.795 1.568 44.795 3.904V9.28H39.835V4.64H37.595V27.36H39.835V20.64H38.875V16H44.795V28.096C44.795 30.432 43.227 32 40.891 32H36.539C34.203 32 32.635 30.432 32.635 28.096V3.904ZM55.1285 27.36H56.6325V32H48.6325V27.36H50.1685V4.64H48.6325V0H56.6325V4.64H55.1285V27.36ZM60.4737 0H65.4337L68.3137 14.4V0H73.2737V32H68.3137L65.4337 17.6V32H60.4737V0Z" fill="white"/>
</svg>
