<svg width="315" height="20" viewBox="0 0 315 20" fill="none" xmlns="http://www.w3.org/2000/svg">
<path d="M-13 2H246.89L230.89 12H-29L-13 2Z" fill="white"/>
<path d="M234 19V19.5H234.148L234.272 19.4198L234 19ZM259.5 2.5V2H259.352L259.228 2.08021L259.5 2.5ZM313 3C313.276 3 313.5 2.77614 313.5 2.5C313.5 2.22386 313.276 2 313 2V3ZM56.5 19.5H234V18.5H56.5V19.5ZM234.272 19.4198L259.772 2.91979L259.228 2.08021L233.728 18.5802L234.272 19.4198ZM259.5 3H313V2H259.5V3ZM56.5 18.5H-0.5V19.5H56.5V18.5Z" fill="white"/>
<circle cx="312.5" cy="2.5" r="2.5" fill="white"/>
</svg>
